<svg xmlns="http://www.w3.org/2000/svg" viewBox="10 10 236 236" width="100%" height="100%">
	<g stroke="#5090ff" stroke-linecap="round" stroke-linejoin="round" fill="none">
		
		<!-- CPU Pins -->
		<path stroke-width="4" d="
			M64 12 v20 M80 12 v20 M96 12 v20 M112 12 v20 M128 12 v20 M144 12 v20 M160 12 v20 M176 12 v20 M192 12 v20
			M64 224 v20 M80 224 v20 M96 224 v20 M112 224 v20 M128 224 v20 M144 224 v20 M160 224 v20 M176 224 v20 M192 224 v20
			M12 64 h20 M12 80 h20 M12 96 h20 M12 112 h20 M12 128 h20 M12 144 h20 M12 160 h20 M12 176 h20 M12 192 h20
			M224 64 h20 M224 80 h20 M224 96 h20 M224 112 h20 M224 128 h20 M224 144 h20 M224 160 h20 M224 176 h20 M224 192 h20
		" />

		<!-- Main CPU Outer Border -->
		<rect x="32" y="32" width="192" height="192" rx="20" stroke-width="5" />
		
		<!-- Inner Terminal Window Border -->
		<rect x="56" y="56" width="144" height="144" rx="8" stroke-width="4" />
		
	</g>

	<!-- Inner Corner Screws -->
	<g fill="#5090ff">
		<circle cx="48" cy="48" r="4" />
		<circle cx="208" cy="48" r="4" />
		<circle cx="48" cy="208" r="4" />
		<circle cx="208" cy="208" r="4" />
	</g>

	<!-- Top-Left Prompt -->
	<text x="64" y="82" font-family="Consolas, 'Fira Code', 'Courier New', monospace" font-size="18" font-weight="bold" fill="#5090ff">
		&gt;<tspan dx="4">whoami</tspan>
	</text>

	<!-- Main Logo Text -->
	<text x="128" y="165" font-family="Consolas, 'Fira Code', 'Courier New', monospace" font-size="92" font-weight="bold" text-anchor="middle" fill="#5090ff">
		RC
	</text>

</svg>